<?xml version="1.0" encoding="UTF-8"?><svg id="a" xmlns="http://www.w3.org/2000/svg" xmlns:xlink="http://www.w3.org/1999/xlink" viewBox="0 0 65.98 88.61"><defs><style>.g{fill:url(#c);}.h{fill:#933f3f;}.i{fill:url(#f);}.j{fill:url(#b);}.k{fill:url(#d);}.l{fill:url(#e);}</style><linearGradient id="b" x1="22.88" y1="4.19" x2="40.38" y2="66.76" gradientTransform="matrix(1, 0, 0, 1, 0, 0)" gradientUnits="userSpaceOnUse"><stop offset="0" stop-color="#e7476b"/><stop offset=".2" stop-color="#ec5a61"/><stop offset=".51" stop-color="#f6804e"/><stop offset="1" stop-color="#faad39"/></linearGradient><linearGradient id="c" x1="18.48" y1="17.26" x2="31.25" y2="62.93" gradientTransform="matrix(1, 0, 0, 1, 0, 0)" gradientUnits="userSpaceOnUse"><stop offset="0" stop-color="#f05e51"/><stop offset=".4" stop-color="#ea5a3d"/><stop offset=".51" stop-color="#e95a38"/><stop offset="1" stop-color="#d3502e"/></linearGradient><linearGradient id="d" x1="44.56" y1="25.31" x2="55.67" y2="65.04" gradientTransform="matrix(1, 0, 0, 1, 0, 0)" gradientUnits="userSpaceOnUse"><stop offset="0" stop-color="#f6834d"/><stop offset=".51" stop-color="#f87646"/><stop offset="1" stop-color="#ce3c13"/></linearGradient><linearGradient id="e" x1="30.25" y1=".34" x2="40.36" y2="36.5" gradientTransform="matrix(1, 0, 0, 1, 0, 0)" gradientUnits="userSpaceOnUse"><stop offset="0" stop-color="#f05e51"/><stop offset=".4" stop-color="#ea5a3d"/><stop offset=".51" stop-color="#e95a38"/><stop offset="1" stop-color="#f99c41"/></linearGradient><linearGradient id="f" x1="23.67" y1="51.83" x2="28.94" y2="70.69" xlink:href="#b"/></defs><path class="h" d="M19.93,73.74c-3.32,3.32-10.95,13.33-10.95,13.33,0,0-7.08-.91-8.68-5.25,0,0-1.6-4.79,2.51-7.3,3.39-2.07,7.54-5.07,8.91-6.06,1.61,1.66,4.17,3.61,8.21,5.29Z"/><path class="h" d="M30.09,78.03s.45,7.3-1.83,10.27c0,0-4.29,.68-5.91,0-.03,0-3.45-.46-3.91-3.42,0,0,1.79-1.95,4.81-9.45,2.25,.65,4.66,1,7.17,1.1l-.33,1.5Z"/><path class="h" d="M57.35,83.38s-5.71,1.83-6.85-1.37c0,0-1.26-4.47-3.48-5.55-.01,0-1.28-1.07-2.41-2.21,3.41-.93,6.78-2.19,9.96-3.72l6.66,7.14s1.6,4.34-3.88,5.71Z"/><g><path class="j" d="M22.64,0s4.91,10.04-8.73,22.58-19.66,35.64,6.42,48.51c0,0-5.82-11.38,6.22-26.56,0,0-.4,18.81,19.25,27.72,0,0,37.71-21.12,10.03-52.8,0,0,1.37,8.6-10.15,16.68,0,0,5.95-23.56-23.04-36.12Z"/><path class="g" d="M20.33,71.09s-5.21-11.88,6.22-26.56c11.43-14.68,5.42-34.15,5.42-34.15,0,0,1.6,12.54-7.62,21.45-4.06,3.92-18.85,16.5-4.01,39.27Z"/><path class="k" d="M55.83,19.45s1.57,9.1-10.15,16.68c-11.71,7.58-3.29,33.32,.12,36.12,0,0-5.82-10.39,7.42-29.86,0,0,9.63-10.56,2.61-22.93Z"/><path class="l" d="M22.64,0s33.56,14,17.03,40.73c-.09,0,10.15-23.06-17.03-40.73Z"/><path class="i" d="M25.24,50.1s-5.47,7.42-2.58,18.54c0,0,.97,3.97,6.76,3.97,.32,0,9.34-1.85,1.04-9.4,0,0-5.55-4.9-5.22-13.12Z"/></g></svg>